<svg width="36" height="36" viewBox="0 0 36 36" fill="none" xmlns="http://www.w3.org/2000/svg">
<path fill-rule="evenodd" clip-rule="evenodd" d="M18.0001 4.125C17.1049 4.125 16.2465 4.48058 15.6136 5.11351C14.9806 5.74645 14.6251 6.60489 14.6251 7.5V7.89C15.4606 7.875 16.3771 7.875 17.3851 7.875H18.6166C19.6216 7.875 20.5396 7.875 21.3766 7.89V7.5C21.3766 7.05666 21.2892 6.61767 21.1195 6.2081C20.9498 5.79853 20.7011 5.4264 20.3875 5.11298C20.0739 4.79957 19.7017 4.551 19.2921 4.38148C18.8824 4.21195 18.4434 4.1248 18.0001 4.125ZM23.6251 7.992V7.5C23.6251 6.00816 23.0324 4.57742 21.9775 3.52252C20.9226 2.46763 19.4919 1.875 18.0001 1.875C16.5082 1.875 15.0775 2.46763 14.0226 3.52252C12.9677 4.57742 12.3751 6.00816 12.3751 7.5V7.992C12.1606 8.01 11.9551 8.031 11.7541 8.0565C10.2391 8.244 8.99105 8.637 7.92905 9.5175C6.86855 10.398 6.25205 11.553 5.78855 13.008C5.33855 14.418 4.99955 16.2285 4.57355 18.507L4.54205 18.672C3.93905 21.8865 3.46505 24.42 3.37655 26.4165C3.28655 28.464 3.59255 30.159 4.74755 31.5495C5.90255 32.9415 7.51205 33.5535 9.54005 33.843C11.5201 34.125 14.0956 34.125 17.3671 34.125H18.6346C21.9046 34.125 24.4816 34.125 26.4601 33.843C28.4881 33.5535 30.0991 32.9415 31.2541 31.5495C32.4091 30.159 32.7121 28.464 32.6236 26.4165C32.5366 24.42 32.0611 21.8865 31.4581 18.672L31.4281 18.507C31.0006 16.2285 30.6601 14.4165 30.2131 13.008C29.7481 11.553 29.1331 10.398 28.0711 9.5175C27.0106 8.637 25.7611 8.2425 24.2461 8.0565C24.0395 8.03117 23.8324 8.00966 23.6251 7.992ZM12.0301 10.29C10.7476 10.4475 9.97205 10.746 9.36605 11.25C8.76155 11.751 8.32505 12.4575 7.93205 13.6905C7.53155 14.9505 7.21505 16.6275 6.77105 18.996C6.14705 22.3215 5.70455 24.696 5.62505 26.5155C5.54705 28.3005 5.83505 29.3355 6.47855 30.114C7.12355 30.8895 8.08805 31.362 9.85805 31.614C11.6581 31.872 14.0761 31.875 17.4586 31.875H18.5416C21.9241 31.875 24.3406 31.872 26.1421 31.6155C27.9121 31.362 28.8766 30.8895 29.5216 30.114C30.1666 29.337 30.4531 28.302 30.3766 26.514C30.2956 24.6975 29.8531 22.3215 29.2291 18.996C28.7851 16.626 28.4701 14.952 28.0681 13.6905C27.6751 12.4575 27.2401 11.751 26.6341 11.2485C26.0281 10.746 25.2541 10.4475 23.9701 10.2885C22.6561 10.1265 20.9506 10.125 18.5401 10.125H17.4601C15.0496 10.125 13.3441 10.1265 12.0301 10.29Z" fill="black"/>
</svg>
